<?xml version="1.0" standalone="no"?>
<!DOCTYPE svg PUBLIC "-//W3C//DTD SVG 20010904//EN"
 "http://www.w3.org/TR/2001/REC-SVG-20010904/DTD/svg10.dtd">
<svg version="1.0" xmlns="http://www.w3.org/2000/svg"
 width="270.000000pt" height="74.000000pt" viewBox="0 0 270.000000 74.000000"
 preserveAspectRatio="xMidYMid meet">

<g transform="translate(0.000000,74.000000) scale(0.100000,-0.100000)"
fill="#000000" stroke="none">
<path d="M1825 640 c-9 -15 4 -30 26 -30 12 0 19 7 19 20 0 21 -33 29 -45 10z"/>
<path d="M2375 600 l-90 -38 -5 -63 c-5 -60 -6 -62 -32 -63 -67 -3 -57 -48 14
-61 29 -6 40 -3 58 15 25 25 21 45 -9 44 -20 -1 -22 3 -19 53 2 41 6 53 18 51
9 -2 16 -17 18 -39 2 -23 12 -45 28 -60 23 -21 35 -24 109 -24 102 0 137 19
145 79 4 27 12 42 30 51 l25 13 -27 11 c-15 6 -59 24 -99 41 -39 16 -72 30
-73 29 0 0 -41 -18 -91 -39z m212 -34 c24 -12 23 -13 -47 -43 l-73 -30 -50 21
-50 21 57 3 c41 2 56 7 56 17 0 12 -15 15 -62 15 l-63 1 55 23 55 23 49 -19
c27 -10 60 -25 73 -32z m-217 -81 c0 -8 -4 -15 -10 -15 -5 0 -10 7 -10 15 0 8
5 15 10 15 6 0 10 -7 10 -15z m210 -6 c-7 -11 -14 -18 -17 -15 -3 3 -11 -1
-17 -9 -13 -18 -92 -29 -101 -14 -4 5 -11 7 -16 4 -5 -4 -15 -3 -21 2 -7 4
-16 8 -20 8 -5 0 -8 3 -8 8 0 4 0 12 0 19 0 6 9 3 20 -7 11 -10 20 -14 20 -9
0 5 24 9 52 8 29 -1 64 4 78 12 35 19 42 17 30 -7z"/>
<path d="M296 595 c4 -8 8 -15 10 -15 2 0 4 7 4 15 0 8 -4 15 -10 15 -5 0 -7
-7 -4 -15z"/>
<path d="M333 595 c0 -8 4 -15 9 -15 4 0 8 4 8 9 0 6 -4 12 -8 15 -5 3 -9 -1
-9 -9z"/>
<path d="M1132 582 c-15 -16 -43 -46 -62 -68 l-35 -39 -3 35 c-5 47 -27 70
-69 70 -85 0 -148 -61 -139 -135 6 -50 35 -75 87 -75 44 0 95 -40 76 -59 -8
-8 4 -11 42 -11 56 0 58 1 142 80 59 57 74 150 33 208 -20 29 -40 28 -72 -6z
m-186 -107 c-6 -37 -12 -48 -33 -56 -37 -14 -56 -4 -48 23 7 25 73 93 82 84 3
-3 2 -26 -1 -51z m198 -25 c-15 -29 -41 -61 -57 -72 -27 -19 -30 -20 -45 -4
-16 16 -16 18 3 28 11 6 43 34 70 62 28 28 51 48 53 44 2 -4 -9 -30 -24 -58z"/>
<path d="M240 589 c0 -5 -5 -7 -12 -3 -7 4 -8 3 -4 -4 4 -6 13 -9 21 -5 17 6
20 23 5 23 -5 0 -10 -5 -10 -11z"/>
<path d="M364 588 c3 -15 26 -23 26 -8 0 6 -4 9 -9 6 -5 -4 -12 -1 -14 4 -3 6
-4 5 -3 -2z"/>
<path d="M410 578 c-12 -8 -12 -9 2 -5 9 3 19 1 22 -6 3 -9 5 -9 5 0 1 18 -13
23 -29 11z"/>
<path d="M775 580 c3 -5 8 -10 11 -10 2 0 4 5 4 10 0 6 -5 10 -11 10 -5 0 -7
-4 -4 -10z"/>
<path d="M1828 583 c-14 -3 -11 -9 15 -34 18 -17 26 -28 20 -24 -10 5 -13 -14
-15 -77 0 -46 -1 -89 -1 -96 1 -7 -1 -11 -4 -8 -3 3 -14 1 -24 -4 -33 -18 -49
13 -49 97 0 75 0 76 -20 58 -16 -14 -20 -31 -20 -81 0 -57 3 -65 25 -80 17
-11 33 -14 52 -9 16 4 43 8 61 8 24 0 30 3 23 10 -7 7 -11 58 -11 129 0 126 1
125 -52 111z"/>
<path d="M169 566 c8 -9 10 -16 5 -15 -13 3 -44 -12 -44 -21 0 -4 7 -10 14
-13 11 -4 13 -1 9 10 -4 11 -3 14 5 9 7 -4 24 2 37 13 15 11 21 22 15 26 -5 3
-10 1 -10 -5 0 -7 -7 -7 -22 1 -21 11 -22 11 -9 -5z"/>
<path d="M810 570 c0 -5 5 -10 10 -10 6 0 10 5 10 10 0 6 -4 10 -10 10 -5 0
-10 -4 -10 -10z"/>
<path d="M458 558 c9 -11 10 -18 2 -23 -14 -9 -13 -28 2 -23 18 6 18 36 0 50
-15 11 -15 11 -4 -4z"/>
<path d="M795 531 c-7 -12 12 -24 25 -16 11 7 4 25 -10 25 -5 0 -11 -4 -15 -9z"/>
<path d="M115 500 c-3 -5 1 -10 10 -10 9 0 13 5 10 10 -3 6 -8 10 -10 10 -2 0
-7 -4 -10 -10z"/>
<path d="M217 486 c-3 -8 -2 -18 3 -21 13 -8 20 9 11 24 -6 10 -10 9 -14 -3z"/>
<path d="M356 484 c-8 -20 0 -32 14 -18 5 5 5 15 1 22 -6 11 -10 10 -15 -4z"/>
<path d="M400 484 c0 -8 5 -12 10 -9 6 4 8 11 5 16 -9 14 -15 11 -15 -7z"/>
<path d="M475 490 c-3 -5 -1 -10 5 -10 6 0 8 -6 4 -12 -4 -7 -3 -9 1 -5 12 10
15 37 5 37 -5 0 -12 -4 -15 -10z"/>
<path d="M197 439 c7 -7 15 -10 18 -7 3 3 -2 9 -12 12 -14 6 -15 5 -6 -5z"/>
<path d="M271 433 c6 -7 21 -11 33 -9 11 3 24 5 29 5 4 1 7 4 7 9 0 4 -18 7
-40 7 -30 1 -37 -2 -29 -12z"/>
<path d="M500 430 c0 -5 5 -10 10 -10 6 0 10 5 10 10 0 6 -4 10 -10 10 -5 0
-10 -4 -10 -10z"/>
<path d="M93 416 c3 -8 2 -17 -4 -20 -5 -2 -4 -3 3 -2 17 3 23 36 8 36 -7 0
-10 -6 -7 -14z"/>
<path d="M213 409 c-13 -5 -23 -11 -23 -14 0 -4 5 -3 10 0 6 4 18 1 26 -6 18
-15 29 -6 17 14 -6 10 -14 12 -30 6z"/>
<path d="M346 404 c-3 -8 1 -17 9 -20 8 -4 15 -14 15 -23 0 -14 2 -14 10 -1 6
9 5 17 -3 22 -9 6 -9 10 1 17 11 6 9 9 -7 14 -12 3 -22 -1 -25 -9z"/>
<path d="M2596 402 c-3 -5 -19 -7 -35 -4 -26 3 -31 0 -36 -21 -4 -14 -4 -30
-1 -36 8 -12 -32 -41 -56 -41 -10 0 -39 19 -64 42 -44 41 -47 42 -60 23 -18
-25 -18 -28 6 -50 26 -24 25 -41 -3 -49 -12 -3 -38 -21 -56 -40 -47 -48 -32
-66 53 -66 63 1 96 15 96 42 0 10 13 18 38 21 30 5 49 20 100 77 63 69 74 101
40 108 -9 2 -19 -1 -22 -6z m-26 -51 c0 -26 -36 -86 -62 -103 -7 -4 -24 -8
-38 -8 -15 0 -31 -5 -38 -12 -17 -17 -53 18 -46 46 3 14 -2 28 -15 40 -21 19
-28 46 -13 46 4 0 23 -16 42 -35 26 -27 42 -35 69 -35 42 0 71 24 71 60 0 15
3 30 6 33 12 12 24 -4 24 -32z m50 25 c0 -16 -28 -42 -36 -33 -8 7 14 47 26
47 6 0 10 -6 10 -14z"/>
<path d="M262 374 c-14 -16 -5 -18 17 -5 7 5 9 11 5 14 -5 3 -15 -1 -22 -9z"/>
<path d="M2443 383 c-17 -6 -16 -38 1 -52 11 -9 20 -10 35 -1 46 24 12 73 -36
53z"/>
<path d="M518 373 c7 -3 16 -2 19 1 4 3 -2 6 -13 5 -11 0 -14 -3 -6 -6z"/>
<path d="M265 340 c3 -5 8 -10 11 -10 2 0 4 5 4 10 0 6 -5 10 -11 10 -5 0 -7
-4 -4 -10z"/>
<path d="M325 300 c-3 -5 -1 -10 4 -10 6 0 11 5 11 10 0 6 -2 10 -4 10 -3 0
-8 -4 -11 -10z"/>
<path d="M1801 284 c0 -11 3 -14 6 -6 3 7 2 16 -1 19 -3 4 -6 -2 -5 -13z"/>
<path d="M1063 238 c-9 -31 -8 -33 14 -33 17 0 21 4 17 15 -4 8 -7 23 -8 33
-1 27 -12 20 -23 -15z"/>
<path d="M871 251 c-7 -5 -11 -19 -9 -32 4 -31 42 -33 46 -3 4 25 -19 46 -37
35z m26 -35 c-4 -9 -11 -16 -17 -16 -11 0 -14 33 -3 44 11 10 26 -11 20 -28z"/>
<path d="M933 253 c-7 -3 -13 -17 -13 -31 0 -21 2 -24 10 -12 9 13 11 13 20 0
8 -12 10 -9 10 12 0 29 -8 38 -27 31z m17 -13 c0 -5 -5 -10 -11 -10 -5 0 -7 5
-4 10 3 6 8 10 11 10 2 0 4 -4 4 -10z"/>
<path d="M1193 253 c-18 -7 -16 -52 3 -60 8 -3 27 0 40 8 22 11 27 11 34 -1
13 -20 12 -8 0 24 -12 33 -26 33 -34 1 -4 -16 -13 -25 -26 -25 -23 0 -27 29
-8 48 13 13 11 14 -9 5z"/>
<path d="M119 237 c8 -10 16 -15 19 -12 3 3 12 -1 20 -8 13 -10 14 -9 10 3 -2
8 -11 15 -19 15 -8 0 -21 5 -29 10 -13 8 -13 7 -1 -8z"/>
<path d="M722 225 c0 -16 2 -22 5 -12 2 9 2 23 0 30 -3 6 -5 -1 -5 -18z"/>
<path d="M751 218 c1 -31 1 -31 9 -8 6 22 8 23 15 8 11 -27 25 -21 24 10 0 24
-1 25 -9 7 -7 -18 -8 -19 -15 -2 -12 28 -25 20 -24 -15z"/>
<path d="M810 225 c0 -22 2 -24 14 -13 8 7 10 15 5 16 -5 2 -7 8 -3 13 3 5 0
9 -5 9 -6 0 -11 -11 -11 -25z"/>
<path d="M980 234 c0 -8 5 -12 10 -9 6 3 10 10 10 16 0 5 -4 9 -10 9 -5 0 -10
-7 -10 -16z"/>
<path d="M1021 243 c0 -5 4 -17 9 -28 8 -18 9 -17 9 8 1 15 -3 27 -9 27 -5 0
-10 -3 -9 -7z"/>
<path d="M1118 220 c2 -16 5 -30 7 -30 2 0 5 14 7 30 3 19 0 30 -7 30 -7 0
-10 -11 -7 -30z"/>
<path d="M1162 225 c0 -16 2 -22 5 -12 2 9 2 23 0 30 -3 6 -5 -1 -5 -18z"/>
<path d="M1570 235 c0 -8 5 -15 10 -15 6 0 10 7 10 15 0 8 -4 15 -10 15 -5 0
-10 -7 -10 -15z"/>
<path d="M1661 234 c0 -11 3 -14 6 -6 3 7 2 16 -1 19 -3 4 -6 -2 -5 -13z"/>
<path d="M1700 240 c-9 -6 -10 -10 -3 -10 6 0 15 5 18 10 8 12 4 12 -15 0z"/>
<path d="M1810 235 c-7 -9 -8 -15 -2 -15 5 0 12 7 16 15 3 8 4 15 2 15 -2 0
-9 -7 -16 -15z"/>
<path d="M1860 241 c0 -5 5 -13 10 -16 6 -3 10 -2 10 4 0 5 -4 13 -10 16 -5 3
-10 2 -10 -4z"/>
<path d="M430 226 c7 -7 13 -7 20 0 6 6 3 10 -10 10 -13 0 -16 -4 -10 -10z"/>
<path d="M1895 230 c-3 -5 -1 -10 4 -10 6 0 11 5 11 10 0 6 -2 10 -4 10 -3 0
-8 -4 -11 -10z"/>
<path d="M1000 209 c0 -5 5 -7 10 -4 6 3 10 8 10 11 0 2 -4 4 -10 4 -5 0 -10
-5 -10 -11z"/>
<path d="M185 200 c3 -5 11 -10 16 -10 6 0 7 5 4 10 -3 6 -11 10 -16 10 -6 0
-7 -4 -4 -10z"/>
<path d="M400 200 c-9 -6 -10 -10 -3 -10 6 0 15 5 18 10 8 12 4 12 -15 0z"/>
<path d="M230 180 c8 -5 22 -9 30 -9 10 0 8 3 -5 9 -27 12 -43 12 -25 0z"/>
<path d="M335 180 c-3 -5 -1 -10 4 -10 6 0 11 5 11 10 0 6 -2 10 -4 10 -3 0
-8 -4 -11 -10z"/>
<path d="M280 168 c0 -4 7 -8 15 -8 8 0 15 4 15 8 0 5 -7 9 -15 9 -8 0 -15 -4
-15 -9z"/>
<path d="M1820 149 c0 -5 9 -9 20 -9 11 0 20 2 20 4 0 2 -9 6 -20 9 -11 3 -20
1 -20 -4z"/>
</g>
</svg>
