<?xml version="1.0" encoding="utf-8"?>
<!-- Generator: Adobe Illustrator 24.3.0, SVG Export Plug-In . SVG Version: 6.00 Build 0)  -->
<svg version="1.1" xmlns="http://www.w3.org/2000/svg" xmlns:xlink="http://www.w3.org/1999/xlink" x="0px" y="0px"
	 viewBox="0 0 928.47 224.99" style="enable-background:new 0 0 928.47 224.99;" xml:space="preserve">
<style type="text/css">
	.st0{fill:#F47D44;}
	.st1{fill:#FFFFFF;}
	.st2{fill:#231F20;}
</style>
<g id="Layer_6">
	<circle class="st0" cx="112.49" cy="112.49" r="112.49"/>
</g>
<g id="Layer_3">
	<g>
		<path class="st1" d="M17.5,109.62c1.37-30.91,27.55-54.86,58.46-53.49c26.72,1.19,48.23,20.88,52.69,46.15l-33.47,4.92
			c-2.05-9.89-10.59-17.52-21.15-17.99c-12.48-0.55-23.04,9.11-23.59,21.59c-0.55,12.48,9.11,23.04,21.59,23.59
			c5.58,0.24,11.57-2.22,15.66-5.4l17.27,27.61c-10.11,7.79-20.22,12.09-33.98,11.48C40.07,166.71,16.12,140.53,17.5,109.62z"/>
		<path class="st1" d="M129.46,110.04l0.77,4.39c0.89,10.07,8.48,18.64,18.91,20.33c12.32,2.01,23.94-6.37,25.94-18.69
			c1.99-12.33-6.37-23.95-18.69-25.95c-5.52-0.89-15.68,1.22-20.23,4.62l-13.94-29.44c10.94-6.56,25.54-10.74,39.13-8.53
			c30.54,4.97,51.28,33.75,46.31,64.29c-4.97,30.54-33.75,51.28-64.29,46.31c-26.4-4.29-45.46-26.35-46.95-51.97L129.46,110.04z"/>
	</g>
</g>
<g id="Layer_4">
</g>
<g id="Layer_5">
	<g>
		<path class="st2" d="M262.53,111.98c0-36.27,20.28-57.75,49.67-57.75c29.22,0,49.5,21.48,49.5,57.75
			c0,36.44-20.28,58.78-49.5,58.78C282.81,170.76,262.53,148.42,262.53,111.98z M341.25,111.98c0-25.09-11.52-40.39-29.05-40.39
			c-17.7,0-29.22,15.3-29.22,40.39c0,25.27,11.52,41.42,29.22,41.42C329.73,153.4,341.25,137.24,341.25,111.98z"/>
		<path class="st2" d="M390.72,175.57v26.47h-19.77V84.31h16.33l1.38,8.94h0.69c7.05-6.02,16.16-11,25.44-11
			c20.97,0,33.17,16.84,33.17,42.97c0,28.87-17.36,45.55-36.09,45.55c-7.39,0-14.78-3.44-21.66-9.28L390.72,175.57z M407.74,154.43
			c11.17,0,19.77-9.97,19.77-29.05c0-16.84-5.5-26.81-18.22-26.81c-6.19,0-12.03,3.09-18.56,9.45v39.36
			C396.91,152.54,402.75,154.43,407.74,154.43z"/>
		<path class="st2" d="M497.3,82.24c22.86,0,34.89,16.5,34.89,40.05c0,3.78-0.34,7.22-0.86,9.28H477.7
			c1.72,15.3,11.34,23.89,24.92,23.89c7.22,0,13.41-2.23,19.59-6.19l6.7,12.38c-8.08,5.33-18.22,9.11-28.88,9.11
			c-23.38,0-41.59-16.33-41.59-44.17C458.45,99.09,477.53,82.24,497.3,82.24z M515,119.03c0-13.41-5.67-21.48-17.19-21.48
			c-9.97,0-18.56,7.39-20.28,21.48H515z"/>
		<path class="st2" d="M547.14,84.31h16.33l1.38,11.34h0.69c7.56-7.39,16.16-13.41,27.67-13.41c18.05,0,25.95,12.2,25.95,33.52
			v52.94h-19.77v-50.36c0-13.92-3.95-19.08-13.23-19.08c-7.39,0-12.2,3.61-19.25,10.48v58.95h-19.77V84.31z"/>
		<path class="st2" d="M670.02,56.29h19.94v95.56h46.58v16.84h-66.52V56.29z"/>
		<path class="st2" d="M741.89,56.29h21.83L784,111.64l7.39,21.31h0.69l7.39-21.31l19.77-55.34h22V168.7H822.5v-51.39
			c0-10.48,1.55-25.44,2.58-35.75h-0.69l-9.11,25.61l-19.42,51.05h-9.11l-19.42-51.05l-8.94-25.61h-0.69
			c0.86,10.31,2.41,25.27,2.41,35.75v51.39h-18.22V56.29z"/>
		<path class="st2" d="M859.21,140.68c8.08,7.56,18.91,12.72,29.39,12.72c12.55,0,19.59-5.67,19.59-14.44
			c0-9.28-7.22-12.2-17.53-16.5l-15.3-6.7c-11.17-4.64-22.69-13.41-22.69-29.91c0-17.88,15.81-31.62,37.64-31.62
			c13.23,0,25.95,5.5,34.72,14.27l-10.31,12.72c-7.05-6.02-14.78-9.62-24.41-9.62c-10.66,0-17.53,4.98-17.53,13.23
			c0,8.77,8.59,12.03,17.88,15.81l15.12,6.36c13.41,5.67,22.69,14.09,22.69,30.42c0,18.22-15.12,33.34-40.39,33.34
			c-15.12,0-29.73-6.02-40.39-16.5L859.21,140.68z"/>
	</g>
</g>
<g id="Layer_7">
</g>
</svg>
